<svg width="14" height="14" viewBox="0 0 14 14" fill="none" xmlns="http://www.w3.org/2000/svg">
<path d="M12.25 9.13V3C12.25 1.35 10.9 0 9.25 0C7.6 0 6.25 1.35 6.25 3V11C6.25 11.83 5.58 12.5 4.75 12.5C3.92 12.5 3.25 11.83 3.25 11V4.87C4.26 4.55 5 3.62 5 2.5C5 1.12 3.88 0 2.5 0C2.33 0 2.16 0.02 2 0.05C1.67 0.12 1.37 0.25 1.1 0.43C0.44 0.88 0 1.64 0 2.5C0 3.36 0.44 4.12 1.1 4.57C1.37 4.75 1.67 4.88 2 4.95C1.91 4.93 1.83 4.9 1.75 4.87V11C1.75 12.65 3.1 14 4.75 14C6.4 14 7.75 12.65 7.75 11V3C7.75 2.17 8.42 1.5 9.25 1.5C10.08 1.5 10.75 2.17 10.75 3V9.13C10.83 9.1 10.91 9.07 11 9.05C10.67 9.12 10.37 9.25 10.11 9.43C9.44 9.88 9.01 10.64 9.01 11.5C9.01 12.36 9.45 13.12 10.11 13.57C10.38 13.75 10.68 13.88 11 13.95C11.16 13.98 11.33 14 11.5 14C12.88 14 14 12.88 14 11.5C14 10.38 13.26 9.45 12.25 9.13ZM1.5 2.5C1.5 1.95 1.95 1.5 2.5 1.5C3.05 1.5 3.5 1.95 3.5 2.5C3.5 3.05 3.05 3.5 2.5 3.5C1.95 3.5 1.5 3.05 1.5 2.5ZM11.5 12.5C10.95 12.5 10.5 12.05 10.5 11.5C10.5 10.95 10.95 10.5 11.5 10.5C12.05 10.5 12.5 10.95 12.5 11.5C12.5 12.05 12.05 12.5 11.5 12.5Z" fill="#FFFFFF"/>
</svg>
